<?xml version="1.0" standalone="no"?>
<!DOCTYPE svg PUBLIC "-//W3C//DTD SVG 20010904//EN"
 "http://www.w3.org/TR/2001/REC-SVG-20010904/DTD/svg10.dtd">
<svg version="1.0" xmlns="http://www.w3.org/2000/svg"
 width="600.000000pt" height="600.000000pt" viewBox="0 0 6000.000000 6000.000000"
 preserveAspectRatio="xMidYMid meet">
<g fill="#d8b50f" stroke="none">
<path d="m 750 100 c -83 52 -83 176 0 226 c 29 18 55 20 320 23 c 158 2 287 5 602 7 c 0 10 -87 361 -364 1475 c -162 652 -374 1506 -471 1897 l -177 713 l -44 0 c -70 0 -144 19 -229 60 c -147 70 -257 196 -311 355 c -51 152 -33 341 48 483 c 68 119 194 224 328 272 c 87 31 250 39 338 16 c 319 -81 514 -392 447 -711 c -22 -103 -76 -205 -153 -286 c -36 -38 -68 -66 -72 -62 c -4 4 -20 59 -35 121 l -27 113 l 33 67 c 32 63 34 73 34 172 c 0 95 -3 111 -28 162 c -52 106 -147 180 -266 208 c -159 37 -345 -57 -417 -212 c -26 -56 -29 -74 -29 -158 c 0 -82 4 -103 27 -152 c 50 -107 162 -199 262 -215 c 43 -7 44 -31 -10 188 c -27 108 -32 143 -24 169 c 32 111 180 135 237 39 c 11 -19 69 -233 129 -477 c 60 -243 112 -441 117 -439 c 4 1 85 108 180 238 c 95 130 258 353 362 496 c 108 149 205 271 224 284 l 35 24 l 1580 9 c 1127 6 1590 5 1616 -3 c 113 -34 155 -179 77 -268 c -49 -56 -77 -63 -242 -63 c -80 0 -145 -4 -145 -9 c 0 -9 74 -97 100 -119 c 33 -28 109 -61 167 -72 c 163 -32 337 60 411 218 c 23 49 27 70 27 152 c 0 88 -3 101 -33 162 c -109 221 -380 283 -578 132 c -29 -22 -40 -24 -162 -24 c -73 0 -132 3 -132 6 c 0 13 45 80 83 124 c 58 67 143 126 232 162 c 76 31 86 33 215 33 c 115 -1 144 -4 199 -23 c 351 -126 506 -524 334 -856 c -55 -105 -155 -202 -263 -254 c -100 -47 -163 -62 -267 -62 c -221 0 -433 128 -532 321 c -22 44 -41 87 -41 95 c 0 9 -11 14 -30 14 c -40 0 -38 -11 11 -110 c 52 -103 155 -215 251 -272 c 203 -121 462 -125 668 -11 c 77 43 188 146 232 217 c 17 28 33 53 34 54 c 2 4 134 -65 143 -74 c 2 -2 -12 -28 -32 -59 l -37 -55 l 26 -16 l 25 -17 l -47 -48 c -37 -38 -58 -50 -98 -59 c -28 -6 -74 -26 -102 -44 c -250 -166 -548 -190 -821 -66 c -210 95 -398 318 -449 532 l -6 28 l -1127 -6 c -619 -3 -1131 -7 -1137 -9 c -6 -2 -64 -77 -130 -167 c -65 -89 -155 -213 -199 -273 c -320 -433 -515 -706 -515 -719 c 0 -8 61 -260 136 -558 c 129 -518 379 -1524 591 -2381 l 98 -399 l 627 8 c 270 6 281 6 312 -14 c 97 -61 74 -212 -37 -240 c -19 -5 -237 -12 -485 -15 c -252 -2 -547 -2 -1347 -13 c -224 -5 -236 -5 -267 15 z"/>
<path d="M 3000 1000 c -354 49 -634 213 -794 464 c -88 138 -129 277 -129 442 c -1 185 46 299 178 431 c 96 96 212 168 405 249 c 240 102 350 168 420 253 c 123 149 116 378 -17 569 c -75 107 -164 170 -320 224 c -154 54 -398 52 -595 -5 c -95 -28 -197 -71 -270 -116 l -48 -30 l -9 22 c -5 13 -39 85 -75 162 c -37 76 -66 139 -64 140 c 2 2 28 17 58 34 c 126 70 330 125 533 144 c 207 18 472 -17 647 -87 c 403 -161 641 -495 640 -899 c -1 -214 -73 -363 -242 -496 c -103 -81 -177 -122 -423 -231 c -238 -106 -349 -191 -402 -306 c -23 -50 -25 -63 -21 -161 c 4 -84 10 -118 28 -157 c 68 -149 185 -249 355 -306 c 63 -22 88 -24 240 -24 c 156 0 179 2 274 28 c 57 16 138 45 179 65 c 56 28 76 34 80 24 c 2 -8 36 -77 74 -155 c 81 -162 84 -146 -41 -198 c -116 -48 -279 -78 -456 -83 c -82 -3 -175 -1 -205 3 z"/>
<path d="M 5000 1000 c -354 49 -634 213 -794 464 c -88 138 -129 277 -129 442 c -1 185 46 299 178 431 c 96 96 212 168 405 249 c 240 102 350 168 420 253 c 123 149 116 378 -17 569 c -75 107 -164 170 -320 224 c -154 54 -398 52 -595 -5 c -95 -28 -197 -71 -270 -116 l -48 -30 l -9 22 c -5 13 -39 85 -75 162 c -37 76 -66 139 -64 140 c 2 2 28 17 58 34 c 126 70 330 125 533 144 c 207 18 472 -17 647 -87 c 403 -161 641 -495 640 -899 c -1 -214 -73 -363 -242 -496 c -103 -81 -177 -122 -423 -231 c -238 -106 -349 -191 -402 -306 c -23 -50 -25 -63 -21 -161 c 4 -84 10 -118 28 -157 c 68 -149 185 -249 355 -306 c 63 -22 88 -24 240 -24 c 156 0 179 2 274 28 c 57 16 138 45 179 65 c 56 28 76 34 80 24 c 2 -8 36 -77 74 -155 c 81 -162 84 -146 -41 -198 c -116 -48 -279 -78 -456 -83 c -82 -3 -175 -1 -205 3 z"/>
</g>
</svg>
